<svg width="300" height="86" viewBox="0 0 145 41" xmlns="http://www.w3.org/2000/svg" xmlns:xlink="http://www.w3.org/1999/xlink"><title>логотип</title><defs><path id="a" d="M.073 9.968h41.06V.043H.074z"/><path id="c" d="M41.14.06H0v13.112h41.14V.062z"/></defs><g fill="none" fill-rule="evenodd"><path d="M10.502 34.403H9.408v1.48h1.065c.28 0 .58-.058.763-.2.212-.17.243-.415.243-.56 0-.25-.09-.43-.214-.54-.052-.055-.237-.18-.764-.18M35.51 37.045h1.474l-.732-2.147" fill="#F05F3F"/><g transform="translate(0 30.979)"><mask id="b" fill="#fff"><use xlink:href="#a"/></mask><path d="M37.72 8.293l-.37-1.037h-2.208l-.357 1.037h-1.88l2.445-6.31h1.796l2.448 6.31H37.72zm-5.24 0h-1.792V3.425H28.63v4.868h-1.796v-6.31h5.645v6.31zm-6.868 0h-1.796V3.425h-2.058v4.868H19.96v-6.31h5.652v6.31zm-8.186-1.39c-.14.316-.31.713-.647 1.012-.498.44-1.072.476-1.553.476-.364 0-.676-.026-1.063-.14V6.84c.22.064.463.09.68.09.14 0 .356-.016.518-.127.118-.08.212-.224.258-.35l-2.194-4.47h1.998l1.156 2.882 1.006-2.882h1.956l-2.116 4.92zm-4.67-1.207c-.582.55-1.45.594-1.955.594H9.41v2.003h-1.8v-6.31h3.21c.6 0 1.362.04 1.944.594.508.486.574 1.1.574 1.53 0 .434-.066 1.1-.583 1.59zm-5.8-2.236H4.222v4.833H2.418v-6.31h4.54V3.46zM.074 9.968h41.06V.043H.074v9.925z" fill="#EF4E23" mask="url(#b)"/></g><g transform="translate(0 .381)"><mask id="d" fill="#fff"><use xlink:href="#c"/></mask><path fill="#00468C" mask="url(#d)" d="M20.5.06L0 8.496v4.62l20.5-8.43 20.64 8.487V8.55"/></g><path fill="#00468C" d="M.078 15.298V28.86h3.858V18.398h4.422V28.86h3.856V15.298M22.54 15.298H26.4V28.86H22.54V20.8l-4.945 8.06h-3.877V15.298h3.877v7.96M36.102 15.298h4.522l-5.288 6.258 5.794 7.304h-4.786l-4.507-6.588h-.078v6.588H27.9V15.298h3.857v5.636h.077"/><path d="M52.077 28.922V18.42h7.8V28.92H58.44v-9.317h-4.92v9.317h-1.443zm9.953 0V18.42h1.443v7.755l6.11-7.756h.943V28.92h-1.443v-7.757l-6.108 7.757h-.945zm10.62 0V18.42h1.443V28.92H72.65zm1.473-5.398l4.152-5.105h1.802l-4.138 5.104 4.496 5.398h-1.86l-4.453-5.398zm7.544 1.948v-1.1h3.48v1.1h-3.48zM87 28.922V18.42h1.44V28.92H87zm1.47-5.398l4.154-5.105h1.8l-4.137 5.104 4.497 5.398h-1.86l-4.453-5.398zm7.347 2.02c0-1.044.32-1.887.963-2.53.642-.642 1.486-.963 2.53-.963 1.04 0 1.883.324 2.527.968.645.645.967 1.487.967 2.527s-.322 1.882-.967 2.527c-.644.644-1.486.967-2.526.967-1.044 0-1.888-.322-2.53-.964-.642-.643-.963-1.486-.963-2.53zm1.443 0c0 .67.19 1.214.567 1.634.38.42.873.63 1.484.63.6 0 1.094-.21 1.48-.633.386-.423.58-.966.58-1.63 0-.664-.194-1.207-.58-1.63-.386-.422-.88-.633-1.48-.633-.61 0-1.104.21-1.483.63-.378.42-.567.964-.567 1.633zm7.12 3.378V22.17h1.317l2.19 3.75 2.19-3.75h1.326v6.752h-1.297V24.33l-1.838 3.288h-.754l-1.846-3.29v4.594h-1.29zm8.634-3.377c0-1.04.324-1.875.97-2.505.648-.63 1.498-.945 2.553-.945.15 0 .266.005.344.015v-4.438h1.4v4.438c.07-.01.183-.015.345-.015 1.054 0 1.905.315 2.552.945.647.63.97 1.465.97 2.505 0 1.04-.323 1.875-.97 2.505-.647.63-1.498.945-2.552.945-.162 0-.276-.005-.345-.015v3.692h-1.4V28.98c-.077.01-.192.015-.343.015-1.055 0-1.905-.315-2.552-.945-.647-.63-.97-1.465-.97-2.505zm1.443 0c0 .67.192 1.213.575 1.633.383.42.885.63 1.505.63.073 0 .188-.01.344-.03v-4.467c-.155-.018-.27-.028-.343-.028-.62 0-1.122.21-1.505.63-.383.42-.575.964-.575 1.633zm3.823 2.234c.137.018.252.028.345.028.615 0 1.116-.21 1.505-.63.388-.42.582-.964.582-1.633 0-.67-.194-1.213-.582-1.633-.39-.42-.89-.63-1.505-.63-.093 0-.208.01-.345.03v4.467zm5.113-2.235c0-1.045.32-1.888.963-2.53.642-.643 1.485-.964 2.53-.964 1.04 0 1.883.324 2.527.968.645.645.967 1.487.967 2.527s-.322 1.882-.967 2.527c-.644.644-1.487.967-2.527.967-1.045 0-1.888-.322-2.53-.964-.642-.643-.963-1.486-.963-2.53zm1.442 0c0 .67.19 1.213.568 1.633.378.42.873.63 1.483.63.6 0 1.094-.21 1.48-.633.385-.423.578-.966.578-1.63 0-.664-.193-1.207-.578-1.63-.386-.422-.88-.633-1.48-.633-.61 0-1.105.21-1.483.63-.378.42-.568.964-.568 1.633zm7.12 7.127V22.17h1.4v.526c.54-.43 1.18-.645 1.917-.645.953 0 1.723.322 2.31.965.59.642.884 1.485.884 2.53 0 1.045-.315 1.888-.945 2.53-.63.643-1.454.964-2.475.964-.65 0-1.213-.136-1.69-.404v4.036h-1.4zm1.4-5.428c.374.376.89.564 1.544.564.63 0 1.14-.21 1.533-.63.393-.42.59-.964.59-1.633 0-.67-.197-1.213-.59-1.633-.393-.42-.904-.63-1.534-.63-.65 0-1.166.205-1.546.615v3.347zm6.136-3.977V22.17h5.45v1.097h-2.028v5.655h-1.392v-5.655h-2.03z" fill="#EF4E23"/></g></svg>
