<svg xmlns="http://www.w3.org/2000/svg" viewBox="0 0 309.267 309.267"><path d="M38.658 0h164.23l87.05 86.71V289.94c0 10.68-8.66 19.33-19.33 19.33H38.658c-10.67 0-19.33-8.65-19.33-19.33V19.328C19.33 8.65 27.99 0 38.66 0z" fill="#E2574C"/><path d="M289.658 86.98h-67.372c-10.67 0-19.33-8.658-19.33-19.328V.192l86.702 86.79z" fill="#B53629"/><path d="M217.434 146.544c3.238 0 4.823-2.822 4.823-5.557 0-2.832-1.653-5.567-4.823-5.567h-18.44c-3.605 0-5.615 2.986-5.615 6.282v45.317c0 4.04 2.3 6.28 5.41 6.28 3.094 0 5.404-2.24 5.404-6.28v-12.44h11.153c3.46 0 5.19-2.83 5.19-5.643 0-2.754-1.73-5.49-5.19-5.49h-11.153v-16.903h13.24zm-62.327-11.124h-13.492c-3.663 0-6.263 2.513-6.263 6.243v45.395c0 4.63 3.74 6.08 6.417 6.08h14.158c16.758 0 27.824-11.028 27.824-28.048-.01-17.995-10.427-29.67-28.645-29.67zm.648 46.526h-8.225v-35.334h7.413c11.22 0 16.1 7.53 16.1 17.918 0 9.723-4.793 17.416-15.288 17.416zM106.33 135.42H92.964c-3.78 0-5.886 2.493-5.886 6.282v45.317c0 4.04 2.416 6.28 5.663 6.28s5.664-2.24 5.664-6.28v-13.232h8.38c10.34 0 18.874-7.326 18.874-19.107 0-11.528-8.233-19.26-19.328-19.26zm-.222 27.738h-7.703V146.06h7.703c4.755 0 7.78 3.712 7.78 8.554-.01 4.833-3.025 8.544-7.78 8.544z" fill="#FFF"/></svg>